<svg width="183" height="32" viewBox="0 0 183 32" fill="none" xmlns="http://www.w3.org/2000/svg">
<path d="M9.176 6.08H0.44V0.0319996H24.824V6.08H16.184V32H9.176V6.08ZM29.6413 0.0319996H36.6493V12.416H50.2333V0.0319996H57.2893V32H50.2333V18.368H36.6493V32H29.6413V0.0319996ZM64.0006 0.0319996H83.4406V6.08H70.8646V12.464H81.2806V18.32H70.8646V25.952H83.4406V32H64.0006V0.0319996ZM105.71 18.704L95.0056 0.0319996H102.83L109.31 12.656L115.742 0.0319996H123.422L112.67 18.704V32H105.71V18.704ZM127.282 0.0319996H134.242V12.416L144.658 0.0319996H152.962L139.81 15.2L152.29 32H143.842L134.242 19.088V32H127.282V0.0319996ZM156.813 0.0319996H163.773V12.416L174.189 0.0319996H182.493L169.341 15.2L181.821 32H173.373L163.773 19.088V32H156.813V0.0319996Z" fill="white"/>
</svg>
